<?xml version="1.0" encoding="UTF-8" standalone="no"?>
<!-- Created with Inkscape (http://www.inkscape.org/) -->

<svg
   xmlns:dc="http://purl.org/dc/elements/1.1/"
   xmlns:cc="http://creativecommons.org/ns#"
   xmlns:rdf="http://www.w3.org/1999/02/22-rdf-syntax-ns#"
   xmlns:svg="http://www.w3.org/2000/svg"
   xmlns="http://www.w3.org/2000/svg"
   xmlns:sodipodi="http://sodipodi.sourceforge.net/DTD/sodipodi-0.dtd"
   xmlns:inkscape="http://www.inkscape.org/namespaces/inkscape"
   width="1200"
   height="800"
   viewBox="0 0 317.50001 211.66666"
   version="1.1"
   id="svg4526"
   inkscape:version="0.92.3 (2405546, 2018-03-11)"
   sodipodi:docname="controller-path.svg">
  <defs
     id="defs4520" />
  <sodipodi:namedview
     id="base"
     pagecolor="#ffffff"
     bordercolor="#666666"
     borderopacity="1.0"
     inkscape:pageopacity="0.0"
     inkscape:pageshadow="2"
     inkscape:zoom="0.7"
     inkscape:cx="571.26445"
     inkscape:cy="616.31456"
     inkscape:document-units="mm"
     inkscape:current-layer="layer3"
     showgrid="true"
     units="px"
     inkscape:window-width="1920"
     inkscape:window-height="1017"
     inkscape:window-x="-8"
     inkscape:window-y="32"
     inkscape:window-maximized="1">
    <inkscape:grid
       type="axonomgrid"
       id="grid5071"
       units="px"
       empspacing="5"
       gridanglex="45"
       gridanglez="45"
       spacingy="6.6145833" />
  </sodipodi:namedview>
  <metadata
     id="metadata4523">
    <rdf:RDF>
      <cc:Work
         rdf:about="">
        <dc:format>image/svg+xml</dc:format>
        <dc:type
           rdf:resource="http://purl.org/dc/dcmitype/StillImage" />
        <dc:title></dc:title>
      </cc:Work>
    </rdf:RDF>
  </metadata>
  <g
     inkscape:label="Calque 1"
     inkscape:groupmode="layer"
     id="layer1"
     transform="translate(0,-85.333343)">
    <path
       style="fill:none;fill-rule:evenodd;stroke:#000000;stroke-width:5.29166651;stroke-linecap:butt;stroke-linejoin:miter;stroke-miterlimit:4;stroke-dasharray:none;stroke-opacity:1"
       d="m 291.04166,105.17709 -49.60938,49.60937 v 66.14584 l -16.53645,16.53646 -16.53646,-16.53646 -16.53646,-16.53646 h -66.14583 l -16.53646,16.53646 -16.536456,16.53646"
       id="path12113"
       inkscape:connector-curvature="0"
       sodipodi:nodetypes="ccccccccc" />
    <path
       style="fill:none;fill-rule:evenodd;stroke:#000000;stroke-width:5.29166651;stroke-linecap:butt;stroke-linejoin:miter;stroke-miterlimit:4;stroke-dasharray:none;stroke-opacity:1"
       d="m 224.89582,138.25001 h -19.84374 l -16.53646,16.53646 H 128.98437 L 112.44791,138.25001 H 92.604163 L 76.067705,154.78646 V 220.9323 L 26.45833,270.54167 v 0"
       id="path12115"
       inkscape:connector-curvature="0"
       sodipodi:nodetypes="cccccccccc" />
  </g>
  <g
     inkscape:groupmode="layer"
     id="layer3"
     inkscape:label="Calque 2"
     style="display:inline">
    <path
       transform="translate(0,-85.333343)"
       style="display:inline;opacity:1;fill:#000000;fill-opacity:1;fill-rule:nonzero;stroke:#000000;stroke-width:2.03787279;stroke-linecap:butt;stroke-linejoin:round;stroke-miterlimit:4;stroke-dasharray:none;stroke-opacity:1"
       d="m 21.591887,269.03756 a 6.4831304,6.48067 0 0 0 -6.48107,6.48108 6.4831304,6.48067 0 0 0 6.48107,6.48107 6.4831304,6.48067 0 0 0 6.48106,-6.48107 6.4831304,6.48067 0 0 0 -6.48106,-6.48108 z m 0,1.40962 a 5.0721718,5.0702475 0 0 1 5.072131,5.07024 5.0721718,5.0702475 0 0 1 -5.072131,5.07025 5.0721718,5.0702475 0 0 1 -5.07215,-5.07025 5.0721718,5.0702475 0 0 1 5.07215,-5.07024 z"
       id="path9078"
       inkscape:connector-curvature="0" />
    <path
       transform="translate(0,-85.333343)"
       inkscape:connector-curvature="0"
       id="path12132"
       d="m 87.595979,235.96465 a 6.4831304,6.48067 0 0 0 -6.48107,6.48108 6.4831304,6.48067 0 0 0 6.48107,6.48107 6.4831304,6.48067 0 0 0 6.481055,-6.48107 6.4831304,6.48067 0 0 0 -6.481055,-6.48108 z m 0,1.40962 a 5.0721718,5.0702475 0 0 1 5.072131,5.07024 5.0721718,5.0702475 0 0 1 -5.072131,5.07025 5.0721718,5.0702475 0 0 1 -5.07215,-5.07025 5.0721718,5.0702475 0 0 1 5.07215,-5.07024 z"
       style="display:inline;opacity:1;fill:#000000;fill-opacity:1;fill-rule:nonzero;stroke:#000000;stroke-width:2.03787279;stroke-linecap:butt;stroke-linejoin:round;stroke-miterlimit:4;stroke-dasharray:none;stroke-opacity:1" />
    <path
       transform="translate(0,-85.333343)"
       style="display:inline;opacity:1;fill:#000000;fill-opacity:1;fill-rule:nonzero;stroke:#000000;stroke-width:2.03787279;stroke-linecap:butt;stroke-linejoin:round;stroke-miterlimit:4;stroke-dasharray:none;stroke-opacity:1"
       d="m 231.8445,131.75723 a 6.4831304,6.48067 0 0 0 -6.48107,6.48108 6.4831304,6.48067 0 0 0 6.48107,6.48107 6.4831304,6.48067 0 0 0 6.48105,-6.48107 6.4831304,6.48067 0 0 0 -6.48105,-6.48108 z m 0,1.40962 a 5.0721718,5.0702475 0 0 1 5.07213,5.07024 5.0721718,5.0702475 0 0 1 -5.07213,5.07025 5.0721718,5.0702475 0 0 1 -5.07215,-5.07025 5.0721718,5.0702475 0 0 1 5.07215,-5.07024 z"
       id="path12134"
       inkscape:connector-curvature="0" />
    <path
       transform="translate(0,-85.333343)"
       inkscape:connector-curvature="0"
       id="path12136"
       d="m 296.04984,93.751101 a 6.4831304,6.48067 0 0 0 -6.48107,6.481079 6.4831304,6.48067 0 0 0 6.48107,6.48108 6.4831304,6.48067 0 0 0 6.48105,-6.48108 6.4831304,6.48067 0 0 0 -6.48105,-6.481079 z m 0,1.40962 a 5.0721718,5.0702475 0 0 1 5.07213,5.070239 5.0721718,5.0702475 0 0 1 -5.07213,5.07025 5.0721718,5.0702475 0 0 1 -5.07215,-5.07025 5.0721718,5.0702475 0 0 1 5.07215,-5.070239 z"
       style="display:inline;opacity:1;fill:#000000;fill-opacity:1;fill-rule:nonzero;stroke:#000000;stroke-width:2.03787279;stroke-linecap:butt;stroke-linejoin:round;stroke-miterlimit:4;stroke-dasharray:none;stroke-opacity:1" />
  </g>
</svg>
